<svg width="59" height="54" viewBox="0 0 59 54" fill="none" xmlns="http://www.w3.org/2000/svg">
<g clip-path="url(#clip0_30_9067)">
<path d="M14.6666 27.6667C14.9529 28.0495 15.3181 28.3662 15.7376 28.5954C16.1571 28.8245 16.6209 28.9608 17.0977 28.9949C17.5744 29.0291 18.0529 28.9603 18.5008 28.7932C18.9486 28.6262 19.3553 28.3648 19.6932 28.0267L21.6932 26.0267C22.3004 25.3981 22.6364 24.556 22.6288 23.6821C22.6212 22.8081 22.2706 21.972 21.6526 21.354C21.0346 20.736 20.1985 20.3854 19.3246 20.3778C18.4506 20.3702 17.6086 20.7062 16.9799 21.3134L15.8332 22.4534M17.3332 26.3334C17.0469 25.9506 16.6817 25.6339 16.2622 25.4048C15.8427 25.1756 15.3789 25.0393 14.9021 25.0052C14.4254 24.971 13.9468 25.0398 13.499 25.2069C13.0512 25.3739 12.6445 25.6353 12.3066 25.9734L10.3066 27.9734C9.69936 28.6021 9.36338 29.4441 9.37098 30.3181C9.37857 31.1921 9.72913 32.0281 10.3472 32.6461C10.9652 33.2641 11.8012 33.6147 12.6752 33.6223C13.5492 33.6299 14.3912 33.2939 15.0199 32.6867L16.1599 31.5467" stroke="#5AACFF" stroke-width="1.66667" stroke-linecap="round" stroke-linejoin="round"/>
</g>
<path d="M59 53H0V55H59V53Z" fill="#393E46" mask="url(#path-1-inside-1_30_9067)"/>
<defs>
<clipPath id="clip0_30_9067">
<rect width="16" height="16" fill="white" transform="translate(8 19)"/>
</clipPath>
</defs>
</svg>
