<svg width="115" height="227" viewBox="0 0 115 227" fill="none" xmlns="http://www.w3.org/2000/svg">
<g clip-path="url(#clip0_44_11055)">
<path d="M85.6666 28.6667C85.9529 29.0495 86.3181 29.3662 86.7376 29.5954C87.1571 29.8245 87.6209 29.9608 88.0977 29.9949C88.5744 30.0291 89.0529 29.9603 89.5008 29.7932C89.9486 29.6262 90.3553 29.3648 90.6932 29.0267L92.6932 27.0267C93.3004 26.3981 93.6364 25.556 93.6288 24.6821C93.6212 23.8081 93.2706 22.972 92.6526 22.354C92.0346 21.736 91.1985 21.3854 90.3246 21.3778C89.4506 21.3702 88.6086 21.7062 87.9799 22.3134L86.8332 23.4534M88.3332 27.3334C88.0469 26.9506 87.6817 26.6339 87.2622 26.4048C86.8427 26.1756 86.3789 26.0393 85.9021 26.0052C85.4254 25.971 84.9468 26.0398 84.499 26.2069C84.0512 26.3739 83.6445 26.6353 83.3066 26.9734L81.3066 28.9734C80.6994 29.6021 80.3634 30.4441 80.371 31.3181C80.3786 32.1921 80.7291 33.0281 81.3472 33.6461C81.9652 34.2641 82.8012 34.6147 83.6752 34.6223C84.5492 34.6299 85.3912 34.2939 86.0199 33.6867L87.1599 32.5467" stroke="#5AACFF" stroke-width="1.66667" stroke-linecap="round" stroke-linejoin="round"/>
</g>
<path d="M115 226H0V228H115V226Z" fill="#393E46" mask="url(#path-1-inside-1_44_11055)"/>
<defs>
<clipPath id="clip0_44_11055">
<rect width="16" height="16" fill="white" transform="translate(79 20)"/>
</clipPath>
</defs>
</svg>
