<svg width="59" height="68" viewBox="0 0 59 68" fill="none" xmlns="http://www.w3.org/2000/svg">
<g clip-path="url(#clip0_30_9063)">
<path d="M14.6666 34.6667C14.9529 35.0495 15.3181 35.3662 15.7376 35.5954C16.1571 35.8245 16.6209 35.9608 17.0977 35.9949C17.5744 36.0291 18.0529 35.9603 18.5008 35.7932C18.9486 35.6262 19.3553 35.3648 19.6932 35.0267L21.6932 33.0267C22.3004 32.3981 22.6364 31.556 22.6288 30.6821C22.6212 29.8081 22.2706 28.972 21.6526 28.354C21.0346 27.736 20.1985 27.3854 19.3246 27.3778C18.4506 27.3702 17.6086 27.7062 16.9799 28.3134L15.8332 29.4534M17.3332 33.3334C17.0469 32.9506 16.6817 32.6339 16.2622 32.4048C15.8427 32.1756 15.3789 32.0393 14.9021 32.0052C14.4254 31.971 13.9468 32.0398 13.499 32.2069C13.0512 32.3739 12.6445 32.6353 12.3066 32.9734L10.3066 34.9734C9.69936 35.6021 9.36338 36.4441 9.37098 37.3181C9.37857 38.1921 9.72913 39.0281 10.3472 39.6461C10.9652 40.2641 11.8012 40.6147 12.6752 40.6223C13.5492 40.6299 14.3912 40.2939 15.0199 39.6867L16.1599 38.5467" stroke="#5AACFF" stroke-width="1.66667" stroke-linecap="round" stroke-linejoin="round"/>
</g>
<path d="M59 67H0V69H59V67Z" fill="#393E46" mask="url(#path-1-inside-1_30_9063)"/>
<defs>
<clipPath id="clip0_30_9063">
<rect width="16" height="16" fill="white" transform="translate(8 26)"/>
</clipPath>
</defs>
</svg>
