<svg width="59" height="68" viewBox="0 0 59 68" fill="none" xmlns="http://www.w3.org/2000/svg">
<g clip-path="url(#clip0_30_9059)">
<path d="M14.6666 28.6667C14.9529 29.0495 15.3181 29.3662 15.7376 29.5954C16.1571 29.8245 16.6209 29.9608 17.0977 29.9949C17.5744 30.0291 18.0529 29.9603 18.5008 29.7932C18.9486 29.6262 19.3553 29.3648 19.6932 29.0267L21.6932 27.0267C22.3004 26.3981 22.6364 25.556 22.6288 24.6821C22.6212 23.8081 22.2706 22.972 21.6526 22.354C21.0346 21.736 20.1985 21.3854 19.3246 21.3778C18.4506 21.3702 17.6086 21.7062 16.9799 22.3134L15.8332 23.4534M17.3332 27.3334C17.0469 26.9506 16.6817 26.6339 16.2622 26.4048C15.8427 26.1756 15.3789 26.0393 14.9021 26.0052C14.4254 25.971 13.9468 26.0398 13.499 26.2069C13.0512 26.3739 12.6445 26.6353 12.3066 26.9734L10.3066 28.9734C9.69936 29.6021 9.36338 30.4441 9.37098 31.3181C9.37857 32.1921 9.72913 33.0281 10.3472 33.6461C10.9652 34.2641 11.8012 34.6147 12.6752 34.6223C13.5492 34.6299 14.3912 34.2939 15.0199 33.6867L16.1599 32.5467" stroke="#5AACFF" stroke-width="1.66667" stroke-linecap="round" stroke-linejoin="round"/>
</g>
<path d="M59 67H0V69H59V67Z" fill="#393E46" mask="url(#path-1-inside-1_30_9059)"/>
<defs>
<clipPath id="clip0_30_9059">
<rect width="16" height="16" fill="white" transform="translate(8 20)"/>
</clipPath>
</defs>
</svg>
